# xmcd
#
# Track frame offsets:
#	150
#	13510
#	26960
#	41870
#	56367
#	72852
#	86805
#	101792
#	116687
#	132610
#	147477
#	158960
#	174292
#	189400
#	204002
#	218847
#	232580
#	248412
#	261362
#	275625
#
# Disc length: 3888 seconds
#
# Revision: 0
# Processed by: cddbd v1.5.1PL2 Copyright (c) Steve Scherf et al.
# Submitted via: dBpowerAMP V4.0
#
DISCID=200f2e14
DTITLE=Louis Armstrong - Greatest Hits
DYEAR=1900
DGENRE=Blues
TTITLE0=All of me
TTITLE1=Between the devil and the deep blue sea
TTITLE2=You can depend on me
TTITLE3=Kickin the gong around
TTITLE4=Love you funny thing
TTITLE5=I got rhythm
TTITLE6=Body and soul
TTITLE7=Chinatown
TTITLE8=After you've gone
TTITLE9=Sweethearts on parade
TTITLE10=Muskrat ramble
TTITLE11=Ain't mishbehavin
TTITLE12=West end blues
TTITLE13=St. James infirmary
TTITLE14=Basin street blues
TTITLE15=St. Louis blues
TTITLE16=Peanut vendor
TTITLE17=When your're smiling
TTITLE18=I'm a ding dong daddy from dumas
TTITLE19=Stardust
EXTD=Clifford Dog
EXTT0=
EXTT1=
EXTT2=
EXTT3=
EXTT4=
EXTT5=
EXTT6=
EXTT7=
EXTT8=
EXTT9=
EXTT10=
EXTT11=
EXTT12=
EXTT13=
EXTT14=
EXTT15=
EXTT16=
EXTT17=
EXTT18=
EXTT19=
PLAYORDER=
